<svg version="1.2" baseProfile="tiny-ps" xmlns="http://www.w3.org/2000/svg" viewBox="0 0 662 299" width="662" height="299">
	<title>Векторный смарт-объект-ai</title>
	<style>
		tspan { white-space:pre }
		.shp0 { fill: #ff9a2a } 
	</style>
	<g id="Слой 1">
		<g id="&lt;Group&gt;">
			<path id="&lt;Path&gt;" class="shp0" d="M174.7 69.5C178.87 69.42 182.32 72.73 182.4 76.9C182.49 81.07 179.18 84.52 175.01 84.61C170.83 84.7 167.38 81.38 167.3 77.21C167.21 73.04 170.52 69.59 174.7 69.5Z" />
			<path id="&lt;Path&gt;" class="shp0" d="M205.09 46.21C211.57 46.08 216.93 51.22 217.06 57.7C217.19 64.18 212.05 69.54 205.57 69.67C199.09 69.8 193.73 64.66 193.6 58.18C193.47 51.7 198.61 46.34 205.09 46.21Z" />
			<path id="&lt;Path&gt;" class="shp0" d="M244.21 24.22C252.81 24.04 259.93 30.88 260.11 39.48C260.28 48.09 253.45 55.2 244.84 55.38C236.24 55.56 229.12 48.72 228.95 40.12C228.77 31.51 235.6 24.39 244.21 24.22Z" />
			<path id="&lt;Path&gt;" class="shp0" d="M291.28 11.1C301.57 10.89 310.07 19.06 310.28 29.34C310.49 39.62 302.33 48.13 292.05 48.34C281.76 48.55 273.26 40.39 273.05 30.1C272.84 19.82 281 11.31 291.28 11.1Z" />
			<path id="&lt;Path&gt;" class="shp0" d="M345.9 6C358.51 5.75 368.95 15.76 369.21 28.38C369.46 40.99 359.45 51.42 346.83 51.68C334.22 51.94 323.79 41.92 323.53 29.31C323.27 16.7 333.29 6.26 345.9 6Z" />
			<path id="&lt;Path&gt;" class="shp0" d="M409.81 11.37C423.9 11.08 435.55 22.27 435.84 36.35C436.13 50.44 424.94 62.09 410.86 62.38C396.77 62.67 385.12 51.48 384.83 37.4C384.54 23.31 395.73 11.66 409.81 11.37Z" />
			<path id="&lt;Path&gt;" class="shp0" d="M472.77 36.06C489.05 35.73 502.52 48.66 502.85 64.94C503.19 81.23 490.26 94.7 473.97 95.03C457.69 95.36 444.22 82.43 443.89 66.15C443.55 49.87 456.48 36.4 472.77 36.06Z" />
			<path id="&lt;Path&gt;" class="shp0" d="M492.25 233.1C488.09 233.18 484.66 229.88 484.57 225.73C484.49 221.57 487.79 218.14 491.94 218.05C496.09 217.97 499.53 221.27 499.62 225.42C499.7 229.57 496.4 233.01 492.25 233.1Z" />
			<path id="&lt;Path&gt;" class="shp0" d="M461.98 256.29C455.53 256.42 450.2 251.3 450.07 244.85C449.93 238.4 455.06 233.06 461.51 232.93C467.96 232.8 473.29 237.92 473.43 244.37C473.56 250.82 468.44 256.16 461.98 256.29Z" />
			<path id="&lt;Path&gt;" class="shp0" d="M423.04 278.18C414.47 278.36 407.38 271.56 407.21 262.99C407.03 254.42 413.83 247.33 422.4 247.16C430.97 246.98 438.06 253.79 438.23 262.35C438.41 270.92 431.6 278.01 423.04 278.18Z" />
			<path id="&lt;Path&gt;" class="shp0" d="M376.16 291.24C365.92 291.45 357.45 283.32 357.24 273.08C357.03 262.85 365.16 254.38 375.4 254.17C385.64 253.96 394.11 262.09 394.32 272.33C394.53 282.56 386.4 291.03 376.16 291.24Z" />
			<path id="&lt;Path&gt;" class="shp0" d="M321.78 296.32C309.22 296.58 298.83 286.6 298.58 274.04C298.32 261.48 308.29 251.1 320.85 250.84C333.41 250.58 343.8 260.55 344.06 273.11C344.31 285.67 334.34 296.06 321.78 296.32Z" />
			<path id="&lt;Path&gt;" class="shp0" d="M258.14 290.98C244.12 291.27 232.51 280.13 232.23 266.1C231.94 252.08 243.08 240.47 257.1 240.19C271.13 239.9 282.73 251.04 283.02 265.06C283.31 279.09 272.17 290.69 258.14 290.98Z" />
			<path id="&lt;Path&gt;" class="shp0" d="M195.46 266.39C179.24 266.72 165.83 253.85 165.5 237.63C165.17 221.42 178.04 208.01 194.26 207.68C210.47 207.35 223.88 220.22 224.22 236.43C224.55 252.65 211.67 266.06 195.46 266.39Z" />
			<path id="&lt;Compound Path&gt;" fill-rule="evenodd" class="shp0" d="M59.81 114.45C64.77 114.45 73.06 114.76 76.63 117.52C80.58 120.57 79.98 127.05 78.84 132.16C77.5 138.19 76.11 144.2 74.8 150.23C73.48 156.25 72.17 162.27 70.82 168.3C70.03 171.82 68.66 176.75 66.33 179.91C63.69 183.47 59.85 185.17 55.88 185.97C51.77 186.79 47.67 186.97 43.61 186.97C29.29 186.97 15.03 186.97 0.77 186.97C-0.54 186.97 -1.22 185.94 -0.94 184.67C-0.04 180.69 0.86 176.7 1.75 172.72C2.04 171.44 3.19 170.4 4.5 170.4C18.75 170.4 33.01 170.4 47.33 170.4C48.51 170.4 49.7 169.45 49.96 168.3C50.7 165 51.44 161.68 52.18 158.38C52.44 157.22 51.67 156.28 50.5 156.28C39.97 156.28 29.44 156.28 18.98 156.28C17.74 156.28 16.93 155.23 17.21 153.96C17.77 151.51 18.32 149.05 18.87 146.59C19.16 145.32 20.44 144.28 21.68 144.28C32.14 144.28 42.66 144.28 53.12 144.28C54.3 144.28 55.49 143.34 55.75 142.18C56.5 138.84 57.25 135.5 57.99 132.16C58.25 131 57.48 130.06 56.31 130.06C42.06 130.06 27.81 130.06 13.57 130.06C12.26 130.06 11.58 129.01 11.86 127.74C12.69 124.08 13.51 120.42 14.33 116.77C14.62 115.49 15.77 114.45 17.07 114.45C31.32 114.45 45.56 114.45 59.81 114.45ZM133.95 186.97C132.71 186.97 131.89 185.94 132.17 184.67C134.12 175.91 136.07 167.17 138.02 158.41C139.97 149.66 141.92 140.91 143.87 132.16C144.13 131 143.36 130.06 142.25 130.06C134.47 130.06 126.76 130.06 119.05 130.06C117.87 130.06 116.75 131 116.49 132.16C115.14 138.19 113.83 144.21 112.45 150.23C111.08 156.26 109.7 162.27 108.36 168.3C107.47 172.25 105.45 180.03 102.16 183.16C98.56 186.58 90.91 186.97 86.72 186.97C84.04 186.97 81.36 186.97 78.81 186.97C77.5 186.97 76.68 185.94 76.97 184.67C77.86 180.69 78.75 176.7 79.64 172.72C79.93 171.44 81.21 170.4 82.51 170.4C83.56 170.4 84.54 170.4 85.59 170.4C86.7 170.4 87.89 169.45 88.15 168.3C89.53 162.13 90.94 155.97 92.35 149.8C93.76 143.65 95.11 137.47 96.48 131.3C97.6 126.33 99.79 120.59 104.9 117.61C109.64 114.84 117.04 114.45 121.88 114.45C136.71 114.45 151.54 114.45 166.37 114.45C167.61 114.45 168.43 115.49 168.14 116.77C165.63 128.08 163.11 139.39 160.6 150.7C158.08 162.02 155.56 173.35 153.04 184.67C152.76 185.94 151.48 186.97 150.24 186.97C144.81 186.97 139.38 186.97 133.95 186.97ZM219.51 186.97C218.27 186.97 217.45 185.94 217.73 184.67C219.17 178.17 220.61 171.67 222.05 165.18C223.48 158.69 224.92 152.19 226.36 145.69C226.57 144.76 226.1 143.94 225.3 143.68C224.45 143.41 223.45 143.75 222.76 144.52C216.59 151.43 210.48 158.34 204.38 165.24C198.27 172.14 192.17 179.06 186.05 185.95C185.45 186.63 184.64 186.97 183.86 186.97C178.04 186.97 172.21 186.97 166.46 186.97C165.15 186.97 164.33 185.94 164.62 184.67C167.13 173.35 169.65 162.02 172.17 150.7C174.68 139.39 177.2 128.08 179.71 116.77C179.99 115.49 181.27 114.45 182.58 114.45C187.67 114.45 192.77 114.45 197.93 114.45C199.17 114.45 199.99 115.49 199.7 116.77C198.26 123.26 196.82 129.75 195.38 136.24C193.94 142.73 192.5 149.22 191.06 155.71C190.85 156.65 191.27 157.45 192.12 157.73C192.91 157.98 193.97 157.66 194.66 156.88C200.77 149.99 206.87 143.07 212.98 136.18C219.08 129.29 225.18 122.39 231.35 115.49C231.95 114.81 232.69 114.45 233.54 114.45C239.29 114.45 245.04 114.45 250.79 114.45C252.1 114.45 252.91 115.49 252.63 116.77C250.13 128.08 247.63 139.39 245.13 150.7C242.62 162.02 240.12 173.34 237.62 184.67C237.33 185.94 236.06 186.97 234.75 186.97C229.65 186.97 224.55 186.97 219.51 186.97ZM302.91 186.97C301.67 186.97 300.85 185.94 301.13 184.67C303.06 175.91 304.98 167.16 306.91 158.41C308.84 149.66 310.76 140.91 312.69 132.17C312.94 131.01 312.23 130.06 311.06 130.06C302.04 130.06 293.02 130.06 284.07 130.06C282.96 130.06 281.77 131.01 281.51 132.17C279.58 140.91 277.65 149.66 275.72 158.41C273.79 167.16 271.86 175.92 269.93 184.67C269.65 185.94 268.37 186.97 267.13 186.97C261.7 186.97 256.27 186.97 250.84 186.97C249.6 186.97 248.78 185.94 249.06 184.67C251.56 173.34 254.07 162.03 256.57 150.7C259.07 139.39 261.57 128.08 264.06 116.77C264.35 115.49 265.62 114.45 266.86 114.45C289.6 114.45 312.34 114.45 335.14 114.45C336.38 114.45 337.2 115.49 336.92 116.77C334.43 128.08 331.95 139.39 329.46 150.7C326.97 162.02 324.48 173.34 321.99 184.67C321.71 185.94 320.44 186.97 319.2 186.97C313.77 186.97 308.34 186.97 302.91 186.97ZM353.73 186.97C349.74 186.97 345.73 186.77 342.05 185.96C338.44 185.16 335.37 183.47 334.29 179.91C333.32 176.7 334.17 171.85 334.95 168.29C336.27 162.27 337.59 156.25 338.91 150.23C340.24 144.21 341.56 138.19 342.88 132.17C344 127.06 346.28 120.57 351.59 117.52C356.37 114.77 364.67 114.45 369.64 114.45C383.88 114.45 398.19 114.45 412.5 114.45C413.74 114.45 414.56 115.5 414.28 116.78C413.48 120.43 412.68 124.09 411.88 127.75C411.6 129.03 410.33 130.06 409.09 130.06C394.78 130.06 380.46 130.06 366.22 130.06C365.04 130.06 363.92 131.01 363.66 132.17C362.34 138.19 361.02 144.21 359.7 150.23C358.38 156.25 357.06 162.27 355.74 168.29C355.49 169.45 356.2 170.39 357.37 170.39C371.7 170.39 386.02 170.39 400.34 170.39C401.58 170.39 402.4 171.43 402.12 172.71C401.25 176.69 400.38 180.68 399.51 184.66C399.23 185.94 397.95 186.97 396.71 186.97C382.39 186.97 368.06 186.97 353.73 186.97ZM466.24 186.97C464.94 186.97 464.18 185.94 464.46 184.66C466.36 175.91 468.27 167.16 470.17 158.41C472.07 149.66 473.98 140.91 475.88 132.17C476.13 131.01 475.36 130.06 474.18 130.06C466.47 130.06 458.69 130.06 450.98 130.06C449.8 130.06 448.68 131.01 448.43 132.17C447.12 138.19 445.81 144.21 444.49 150.23C443.18 156.24 441.87 162.27 440.56 168.29C439.7 172.24 437.73 180.04 434.44 183.15C430.81 186.59 423.2 186.97 419.02 186.97C416.33 186.97 413.65 186.97 410.97 186.97C409.73 186.97 408.91 185.94 409.19 184.66C410.06 180.68 410.93 176.69 411.8 172.71C412.08 171.43 413.35 170.39 414.6 170.39C415.64 170.39 416.69 170.39 417.73 170.39C418.91 170.39 420.03 169.44 420.28 168.29C421.63 162.13 422.98 155.95 424.32 149.8C425.66 143.65 427.01 137.47 428.36 131.31C429.44 126.34 431.68 120.6 436.77 117.62C441.49 114.85 448.83 114.45 453.73 114.45C468.56 114.45 483.39 114.45 498.23 114.45C499.53 114.45 500.35 115.5 500.07 116.78C497.62 128.09 495.16 139.4 492.7 150.7C490.24 162.02 487.79 173.33 485.32 184.66C485.05 185.94 483.77 186.97 482.47 186.97C477.04 186.97 471.61 186.97 466.24 186.97ZM498.36 186.97C497.05 186.97 496.23 185.94 496.51 184.66C498.97 173.33 501.43 162.02 503.88 150.7C506.34 139.4 508.79 128.09 511.25 116.78C511.52 115.5 512.8 114.45 514.1 114.45C533.7 114.45 553.31 114.45 572.91 114.45C574.15 114.45 574.97 115.5 574.69 116.78C573.9 120.44 573.11 124.1 572.32 127.76C572.05 129.03 570.77 130.07 569.53 130.07C556.79 130.07 544.04 130.07 531.37 130.07C530.19 130.07 529.07 131.01 528.82 132.17C528.1 135.51 527.37 138.85 526.65 142.18C526.4 143.34 527.11 144.29 528.29 144.29C539.73 144.29 551.16 144.29 562.67 144.29C563.98 144.29 564.8 145.32 564.52 146.59C563.99 149.05 563.46 151.51 562.93 153.96C562.66 155.23 561.38 156.27 560.08 156.27C548.57 156.27 537.13 156.27 525.69 156.27C524.51 156.27 523.39 157.22 523.14 158.37C522.42 161.68 521.71 164.98 520.99 168.28C520.74 169.44 521.45 170.38 522.63 170.38C535.32 170.38 548.07 170.38 560.82 170.38C562.06 170.38 562.88 171.43 562.61 172.7C561.75 176.69 560.89 180.67 560.02 184.66C559.75 185.94 558.48 186.97 557.23 186.97C537.61 186.97 517.99 186.97 498.36 186.97ZM570.71 186.97C569.46 186.97 568.65 185.93 568.92 184.66C569.78 180.67 570.64 176.69 571.5 172.7C571.78 171.43 573.05 170.38 574.29 170.38C575.34 170.38 576.38 170.38 577.43 170.38C578.61 170.38 579.73 169.44 579.98 168.28C581.31 162.13 582.61 155.95 583.9 149.8C585.2 143.64 586.56 137.48 587.89 131.32C588.98 126.29 591.21 120.46 596.42 117.54C601.24 114.83 608.91 114.45 613.81 114.45C628.64 114.45 643.47 114.45 658.3 114.45C659.55 114.45 660.37 115.5 660.09 116.78C658.25 125.37 656.4 133.95 654.56 142.53C652.72 151.11 650.88 159.7 649.03 168.28C648.78 169.44 649.56 170.38 650.67 170.38C651.72 170.38 652.77 170.38 653.81 170.38C655.12 170.38 656.01 171.43 655.73 172.7C654.88 176.68 654.02 180.67 653.17 184.66C652.89 185.94 651.56 186.97 650.25 186.97C623.69 186.97 597.2 186.97 570.71 186.97ZM628.24 168.28C629.53 162.27 630.83 156.24 632.12 150.23C633.41 144.21 634.71 138.19 636 132.17C636.25 131.02 635.54 130.07 634.36 130.07C626.39 130.07 618.35 130.07 610.44 130.07C609.33 130.07 608.15 131.01 607.9 132.17C606.6 138.19 605.27 144.21 604.01 150.23C602.75 156.24 601.48 162.27 600.18 168.28C599.93 169.44 600.71 170.38 601.82 170.38C609.74 170.38 617.71 170.38 625.69 170.38C626.87 170.38 627.99 169.44 628.24 168.28Z" />
		</g>
	</g>
</svg>